{
    "asset" : {
        "generator" : "Khronos glTF Blender I/O v3.4.50",
        "version" : "2.0"
    },
    "scene" : 0,
    "scenes" : [
        {
            "name" : "Scene",
            "nodes" : [
                2
            ]
        }
    ],
    "nodes" : [
        {
            "mesh" : 0,
            "name" : "cannon_barrel_blue",
            "translation" : [
                0,
                2,
                2.288818359375e-05
            ]
        },
        {
            "children" : [
                0
            ],
            "mesh" : 1,
            "name" : "cannon_turret_blue",
            "translation" : [
                0,
                0.5,
                -2.5928020477294922e-05
            ]
        },
        {
            "children" : [
                1
            ],
            "mesh" : 2,
            "name" : "cannon_base_blue"
        }
    ],
    "materials" : [
        {
            "name" : "platformer",
            "pbrMetallicRoughness" : {
                "baseColorTexture" : {
                    "index" : 0
                },
                "metallicFactor" : 0,
                "roughnessFactor" : 0.30000001192092896
            }
        }
    ],
    "meshes" : [
        {
            "name" : "cannon_barrel_blue",
            "primitives" : [
                {
                    "attributes" : {
                        "POSITION" : 0,
                        "TEXCOORD_0" : 1,
                        "NORMAL" : 2
                    },
                    "indices" : 3,
                    "material" : 0
                }
            ]
        },
        {
            "name" : "cannon_turret_blue",
            "primitives" : [
                {
                    "attributes" : {
                        "POSITION" : 4,
                        "TEXCOORD_0" : 5,
                        "NORMAL" : 6
                    },
                    "indices" : 7,
                    "material" : 0
                }
            ]
        },
        {
            "name" : "cannon_base_blue",
            "primitives" : [
                {
                    "attributes" : {
                        "POSITION" : 8,
                        "TEXCOORD_0" : 9,
                        "NORMAL" : 10
                    },
                    "indices" : 11,
                    "material" : 0
                }
            ]
        }
    ],
    "textures" : [
        {
            "sampler" : 0,
            "source" : 0
        }
    ],
    "images" : [
        {
            "mimeType" : "image/png",
            "name" : "platformer_texture",
            "uri" : "platformer_texture.png"
        }
    ],
    "accessors" : [
        {
            "bufferView" : 0,
            "componentType" : 5126,
            "count" : 1204,
            "max" : [
                1.4999998807907104,
                0.999976396560669,
                1.6146124601364136
            ],
            "min" : [
                -1.5000004768371582,
                -1.0000228881835938,
                -0.9853874444961548
            ],
            "type" : "VEC3"
        },
        {
            "bufferView" : 1,
            "componentType" : 5126,
            "count" : 1204,
            "type" : "VEC2"
        },
        {
            "bufferView" : 2,
            "componentType" : 5126,
            "count" : 1204,
            "type" : "VEC3"
        },
        {
            "bufferView" : 3,
            "componentType" : 5123,
            "count" : 4716,
            "type" : "SCALAR"
        },
        {
            "bufferView" : 4,
            "componentType" : 5126,
            "count" : 539,
            "max" : [
                1.3286224603652954,
                2.4497365951538086,
                0.6500005125999451
            ],
            "min" : [
                -1.3286232948303223,
                5.960464477539063e-08,
                -0.6499999165534973
            ],
            "type" : "VEC3"
        },
        {
            "bufferView" : 5,
            "componentType" : 5126,
            "count" : 539,
            "type" : "VEC2"
        },
        {
            "bufferView" : 6,
            "componentType" : 5126,
            "count" : 539,
            "type" : "VEC3"
        },
        {
            "bufferView" : 7,
            "componentType" : 5123,
            "count" : 1584,
            "type" : "SCALAR"
        },
        {
            "bufferView" : 8,
            "componentType" : 5126,
            "count" : 504,
            "max" : [
                1.0000003576278687,
                0.5681891441345215,
                1
            ],
            "min" : [
                -0.9999997019767761,
                1.1920928955078125e-07,
                -1
            ],
            "type" : "VEC3"
        },
        {
            "bufferView" : 9,
            "componentType" : 5126,
            "count" : 504,
            "type" : "VEC2"
        },
        {
            "bufferView" : 10,
            "componentType" : 5126,
            "count" : 504,
            "type" : "VEC3"
        },
        {
            "bufferView" : 11,
            "componentType" : 5123,
            "count" : 816,
            "type" : "SCALAR"
        }
    ],
    "bufferViews" : [
        {
            "buffer" : 0,
            "byteLength" : 14448,
            "byteOffset" : 0,
            "target" : 34962
        },
        {
            "buffer" : 0,
            "byteLength" : 9632,
            "byteOffset" : 14448,
            "target" : 34962
        },
        {
            "buffer" : 0,
            "byteLength" : 14448,
            "byteOffset" : 24080,
            "target" : 34962
        },
        {
            "buffer" : 0,
            "byteLength" : 9432,
            "byteOffset" : 38528,
            "target" : 34963
        },
        {
            "buffer" : 0,
            "byteLength" : 6468,
            "byteOffset" : 47960,
            "target" : 34962
        },
        {
            "buffer" : 0,
            "byteLength" : 4312,
            "byteOffset" : 54428,
            "target" : 34962
        },
        {
            "buffer" : 0,
            "byteLength" : 6468,
            "byteOffset" : 58740,
            "target" : 34962
        },
        {
            "buffer" : 0,
            "byteLength" : 3168,
            "byteOffset" : 65208,
            "target" : 34963
        },
        {
            "buffer" : 0,
            "byteLength" : 6048,
            "byteOffset" : 68376,
            "target" : 34962
        },
        {
            "buffer" : 0,
            "byteLength" : 4032,
            "byteOffset" : 74424,
            "target" : 34962
        },
        {
            "buffer" : 0,
            "byteLength" : 6048,
            "byteOffset" : 78456,
            "target" : 34962
        },
        {
            "buffer" : 0,
            "byteLength" : 1632,
            "byteOffset" : 84504,
            "target" : 34963
        }
    ],
    "samplers" : [
        {
            "magFilter" : 9729,
            "minFilter" : 9987
        }
    ],
    "buffers" : [
        {
            "byteLength" : 86136,
            "uri" : "cannon_base_blue.bin"
        }
    ]
}
