{
    "asset" : {
        "generator" : "Khronos glTF Blender I/O v3.4.50",
        "version" : "2.0"
    },
    "scene" : 0,
    "scenes" : [
        {
            "name" : "Scene",
            "nodes" : [
                1
            ]
        }
    ],
    "nodes" : [
        {
            "mesh" : 0,
            "name" : "chest_large_lid_yellow",
            "translation" : [
                0,
                0.45819926261901855,
                -0.6214661002159119
            ]
        },
        {
            "children" : [
                0
            ],
            "mesh" : 1,
            "name" : "chest_large_yellow"
        }
    ],
    "materials" : [
        {
            "name" : "platformer",
            "pbrMetallicRoughness" : {
                "baseColorTexture" : {
                    "index" : 0
                },
                "metallicFactor" : 0,
                "roughnessFactor" : 0.30000001192092896
            }
        }
    ],
    "meshes" : [
        {
            "name" : "chest_large_lid_yellow",
            "primitives" : [
                {
                    "attributes" : {
                        "POSITION" : 0,
                        "TEXCOORD_0" : 1,
                        "NORMAL" : 2
                    },
                    "indices" : 3,
                    "material" : 0
                }
            ]
        },
        {
            "name" : "chest_large_yellow",
            "primitives" : [
                {
                    "attributes" : {
                        "POSITION" : 4,
                        "TEXCOORD_0" : 5,
                        "NORMAL" : 6
                    },
                    "indices" : 7,
                    "material" : 0
                }
            ]
        }
    ],
    "textures" : [
        {
            "sampler" : 0,
            "source" : 0
        }
    ],
    "images" : [
        {
            "mimeType" : "image/png",
            "name" : "platformer_texture",
            "uri" : "platformer_texture.png"
        }
    ],
    "accessors" : [
        {
            "bufferView" : 0,
            "componentType" : 5126,
            "count" : 1324,
            "max" : [
                0.906216025352478,
                0.6379634141921997,
                1.3788913488388062
            ],
            "min" : [
                -0.9061837196350098,
                -0.1637672483921051,
                -0.06690937280654907
            ],
            "type" : "VEC3"
        },
        {
            "bufferView" : 1,
            "componentType" : 5126,
            "count" : 1324,
            "type" : "VEC2"
        },
        {
            "bufferView" : 2,
            "componentType" : 5126,
            "count" : 1324,
            "type" : "VEC3"
        },
        {
            "bufferView" : 3,
            "componentType" : 5123,
            "count" : 3264,
            "type" : "SCALAR"
        },
        {
            "bufferView" : 4,
            "componentType" : 5126,
            "count" : 958,
            "max" : [
                0.9270267486572266,
                0.5566813349723816,
                0.7026238441467285
            ],
            "min" : [
                -0.9270267486572266,
                0,
                -0.735883891582489
            ],
            "type" : "VEC3"
        },
        {
            "bufferView" : 5,
            "componentType" : 5126,
            "count" : 958,
            "type" : "VEC2"
        },
        {
            "bufferView" : 6,
            "componentType" : 5126,
            "count" : 958,
            "type" : "VEC3"
        },
        {
            "bufferView" : 7,
            "componentType" : 5123,
            "count" : 2652,
            "type" : "SCALAR"
        }
    ],
    "bufferViews" : [
        {
            "buffer" : 0,
            "byteLength" : 15888,
            "byteOffset" : 0,
            "target" : 34962
        },
        {
            "buffer" : 0,
            "byteLength" : 10592,
            "byteOffset" : 15888,
            "target" : 34962
        },
        {
            "buffer" : 0,
            "byteLength" : 15888,
            "byteOffset" : 26480,
            "target" : 34962
        },
        {
            "buffer" : 0,
            "byteLength" : 6528,
            "byteOffset" : 42368,
            "target" : 34963
        },
        {
            "buffer" : 0,
            "byteLength" : 11496,
            "byteOffset" : 48896,
            "target" : 34962
        },
        {
            "buffer" : 0,
            "byteLength" : 7664,
            "byteOffset" : 60392,
            "target" : 34962
        },
        {
            "buffer" : 0,
            "byteLength" : 11496,
            "byteOffset" : 68056,
            "target" : 34962
        },
        {
            "buffer" : 0,
            "byteLength" : 5304,
            "byteOffset" : 79552,
            "target" : 34963
        }
    ],
    "samplers" : [
        {
            "magFilter" : 9729,
            "minFilter" : 9987
        }
    ],
    "buffers" : [
        {
            "byteLength" : 84856,
            "uri" : "chest_large_yellow.bin"
        }
    ]
}
